# Blender v2.79 (sub 0) OBJ File: 'asteroid.blend'
# www.blender.org
mtllib asteroid.mtl
o Icosphere
v -0.015733 -1.079951 0.015139
v 0.723607 -0.447220 0.525725
v -0.321838 -0.530537 1.010382
v -0.830209 -0.412925 -0.000248
v -0.321838 -0.530537 -0.979525
v 0.645099 -0.412929 -0.479599
v 0.324711 0.515636 1.010382
v -0.674458 0.402612 0.479104
v -0.674458 0.402612 -0.479599
v 0.279025 0.463462 -0.892051
v 0.894426 0.447216 0.000000
v 0.001436 1.162190 0.015428
v -0.162805 -0.780777 0.455644
v 0.498911 -1.002410 0.376861
v 0.225002 -0.484521 0.737402
v 0.996388 -0.622372 0.015428
v 0.498911 -1.002410 -0.346004
v -0.494035 -0.780775 -0.000248
v -0.642164 -0.484520 0.455645
v -0.188987 -0.920679 -0.518090
v -0.642164 -0.484520 -0.456140
v 0.225002 -0.484521 -0.737897
v 0.951058 0.000000 0.309013
v 0.998538 -0.013484 -0.314413
v 0.001436 -0.007450 1.185068
v 0.521258 -0.005158 0.737406
v -0.881845 -0.005158 0.281507
v -0.642587 -0.013484 0.877928
v -0.686061 -0.007450 -0.930830
v -1.110959 -0.007450 -0.346005
v 0.521258 -0.005158 -0.737902
v 0.001436 -0.007450 -1.154212
v 0.612805 0.474203 0.455645
v -0.254361 0.474205 0.737402
v -0.922921 0.547197 0.015139
v -0.296074 0.547198 -0.847645
v 0.806370 0.607472 -0.569388
v 0.191451 0.987509 0.600243
v 0.525730 0.850652 0.000000
v -0.469326 0.893711 0.344689
v -0.402485 0.770460 -0.282001
v 0.191451 0.987509 -0.569386
vt 0.701327 0.166775
vt 0.673507 0.030296
vt 0.605627 0.236277
vt 0.458997 0.671996
vt 0.537357 0.369070
vt 0.691597 0.692869
vt 0.440486 0.102001
vt 0.280451 0.227343
vt 0.446166 0.275996
vt 0.667141 0.331174
vt 0.777475 0.285143
vt 0.816568 0.113766
vt 0.192921 0.187971
vt 0.438051 0.038886
vt 0.277835 0.352155
vt 0.476930 0.289580
vt 0.564737 0.215989
vt 0.426968 0.384952
vt 0.642438 0.476342
vt 0.573325 0.401377
vt 0.585048 0.582305
vt 0.225773 0.829729
vt 0.201972 0.492037
vt 0.685719 0.628624
vt 0.671827 0.219850
vt 0.749984 0.269445
vt 0.791768 0.420642
vt 0.917820 0.212549
vt 0.806196 0.316535
vt 0.719464 0.176760
vt 0.306226 0.819170
vt 0.678361 0.635411
vt 0.440663 0.642913
vt 0.403471 0.825823
vt 0.512981 0.763653
vt 0.469020 0.476623
vt 0.510431 0.662146
vt 0.497425 0.523267
vt 0.466057 0.555525
vt 0.651450 0.532939
vt 0.561695 0.829209
vt 0.628017 0.715981
vt 0.791182 0.804958
vt 0.599664 0.978117
vt 0.498215 0.267023
vt 0.390019 0.313603
vt 0.486008 0.364720
vt 0.283979 0.624942
vt 0.531692 0.541734
vt 0.467468 0.885523
vt 0.301170 0.628916
vt 0.617188 0.737461
vt 0.256824 0.873774
vt 0.762066 0.759187
vt 0.849934 0.879268
vt 0.694875 0.950327
vt 0.940481 0.645395
vt 0.093074 0.899256
vt 0.615559 0.421455
vt 0.288625 0.797202
vt 0.600777 0.299115
vt 0.347184 0.393690
vt 0.460500 0.492515
vt 0.369207 0.762964
vt 0.316144 0.857395
vt 0.170579 0.901244
vt 0.439309 0.978881
vt 0.160471 0.689088
vt 0.512460 0.645139
vt 0.446083 0.833658
vt 0.470559 0.974193
vt 0.216259 0.637212
vt 0.039881 0.520815
vt 0.765232 0.441416
vt 0.503226 0.347019
vt 0.897425 0.320142
vt 0.910431 0.459021
vt 0.052250 0.568873
vt 0.265849 0.322387
vt 0.912981 0.560528
vt 0.803471 0.622698
vt 0.835152 0.756927
vt 0.732590 0.724836
vt 0.624394 0.771415
vt 0.507377 0.518476
vt 0.815410 0.657750
vt 0.800557 0.940896
vt 0.637392 0.851919
vt 0.415601 0.134795
vt 0.128531 0.158390
vt 0.214022 0.418577
vt 0.533165 0.294314
vt 0.473095 0.124110
vt 0.120857 0.341169
vt 0.010193 0.652065
vt 0.908833 0.483143
vt 0.794112 0.333695
vt 0.840971 0.211760
vt 0.715861 0.224474
vt 0.770090 0.313898
vt 0.641225 0.297956
vt 0.333326 0.163011
vt 0.647047 0.039145
vt 0.174401 0.257297
vt 0.641156 0.244114
vt 0.806035 0.521813
vt 0.478101 0.514482
vt 0.635333 0.180121
vt 0.926934 0.570158
vt 0.159375 0.406128
vt 0.625867 0.051567
vt 0.814094 0.146234
vt 0.555343 0.923939
vt 0.861934 0.961578
vt 0.961802 0.698228
vt 0.861621 0.354079
vt 0.869020 0.273498
vt 0.211920 0.537408
vt 0.529861 0.835252
vt 0.674585 0.407743
vt 0.833357 0.564406
vt 0.033191 0.271186
vt 0.318053 0.388900
vt 0.100881 0.068323
vt 0.336638 0.004975
vt 0.730929 0.672496
vt 0.606409 0.795750
vt 0.724175 0.892574
vt 0.918738 0.388100
vt 0.572276 0.755583
vt 0.444884 0.692377
vt 0.171321 0.921648
vt 0.783754 0.113853
vt 0.725938 0.412161
vn -0.2221 -0.8395 0.4960
vn 0.7227 -0.4362 0.5361
vn -0.5022 -0.7840 0.3648
vn -0.5266 -0.8462 -0.0816
vn -0.0461 -0.9612 -0.2721
vn 0.8405 -0.1798 0.5110
vn 0.4182 -0.5096 0.7519
vn -0.8897 -0.3304 0.3151
vn -0.7616 -0.4909 -0.4230
vn 0.5346 -0.3304 -0.7779
vn 0.7060 -0.0159 0.7081
vn -0.4299 -0.0356 0.9022
vn -0.8844 -0.3359 0.3241
vn -0.3066 -0.1256 -0.9435
vn 0.6374 -0.2648 -0.7236
vn 0.7684 0.5295 0.3595
vn -0.5260 0.4218 0.7385
vn -0.5626 0.6735 -0.4794
vn 0.0108 0.5256 -0.8507
vn 0.7361 0.6727 0.0755
vn 0.5067 0.8573 -0.0914
vn 0.5229 0.8461 -0.1036
vn 0.3302 0.5343 -0.7781
vn -0.4767 0.7878 -0.3902
vn -0.4788 0.7821 -0.3988
vn -0.6314 0.6734 -0.3846
vn -0.5932 0.7756 -0.2158
vn -0.4873 0.8455 -0.2183
vn -0.7235 0.4463 0.5266
vn -0.2642 0.8972 0.3538
vn -0.3707 0.5264 0.7652
vn -0.3905 0.5386 0.7466
vn 0.5107 0.8551 0.0895
vn 0.7762 0.5508 0.3067
vn 0.6815 0.6228 0.3843
vn 0.9608 0.2672 -0.0734
vn 0.6592 -0.1019 -0.7450
vn 0.5238 -0.0095 -0.8518
vn 0.0031 0.4850 -0.8745
vn -0.2908 0.3386 -0.8949
vn -0.6805 0.5509 -0.4832
vn -0.6699 0.5511 -0.4975
vn -0.9352 0.0950 0.3411
vn -0.8420 0.1822 0.5077
vn -0.4959 0.5808 0.6456
vn -0.3721 0.5181 0.7701
vn -0.3979 0.5023 0.7677
vn 0.8862 0.0970 0.4530
vn 0.6777 0.2721 0.6832
vn 0.7840 0.4170 0.4599
vn 0.6236 0.0661 -0.7790
vn 0.5839 -0.3609 -0.7272
vn 0.3853 -0.4976 -0.7771
vn -0.6722 0.5564 -0.4884
vn -0.6754 -0.5504 -0.4907
vn -0.7218 -0.6646 -0.1933
vn -0.8902 0.2778 0.3610
vn -0.8826 -0.3143 0.3497
vn -0.8106 -0.3913 0.4356
vn 0.6457 -0.1489 0.7490
vn 0.6060 -0.3745 0.7018
vn 0.3944 -0.2437 0.8860
vn 0.9823 0.1735 0.0711
vn 0.9965 0.0372 0.0751
vn 0.6893 -0.3469 -0.6360
vn 0.5357 -0.3108 -0.7851
vn 0.1409 -0.5489 -0.8239
vn 0.3482 -0.6640 -0.6617
vn -0.6730 -0.6489 -0.3549
vn -0.6917 -0.6872 -0.2218
vn -0.7240 -0.6617 -0.1947
vn -0.7240 -0.6617 0.1947
vn -0.4911 -0.7947 0.3568
vn -0.5120 -0.8285 0.2269
vn 0.7043 -0.3185 -0.6345
vn 0.6071 -0.7947 0.0000
vn 0.1490 -0.9888 0.0000
vn 0.3011 -0.8339 0.4625
vn -0.1092 -0.6062 0.7878
vn 0.3853 -0.3813 0.8404
usemtl None
s off
f 1/1/1 14/2/1 13/3/1
f 2/4/2 14/5/2 16/6/2
f 1/7/3 13/8/3 18/9/3
f 1/1/4 18/10/4 20/11/4
f 1/1/5 20/11/5 17/12/5
f 2/13/6 16/14/6 23/15/6
f 3/16/7 15/17/7 25/18/7
f 4/19/8 19/20/8 27/21/8
f 5/22/9 21/23/9 29/24/9
f 6/25/10 22/26/10 31/27/10
f 2/28/11 23/29/11 26/30/11
f 3/16/12 25/18/12 28/31/12
f 4/19/13 27/21/13 30/32/13
f 5/33/14 29/34/14 32/35/14
f 6/36/15 31/37/15 24/38/15
f 7/39/16 33/40/16 38/41/16
f 8/42/17 34/43/17 40/44/17
f 9/45/18 35/46/18 41/47/18
f 10/48/19 36/49/19 42/50/19
f 11/51/20 37/52/20 39/53/20
f 39/54/21 42/55/21 12/56/21
f 39/54/22 37/57/22 42/55/22
f 37/58/23 10/48/23 42/50/23
f 42/59/24 41/47/24 12/60/24
f 42/59/25 36/61/25 41/47/25
f 36/61/26 9/45/26 41/47/26
f 41/47/27 40/62/27 12/63/27
f 41/47/28 35/46/28 40/62/28
f 35/64/29 8/42/29 40/44/29
f 40/65/30 38/66/30 12/67/30
f 40/65/31 34/68/31 38/66/31
f 34/69/32 7/39/32 38/41/32
f 38/66/33 39/70/33 12/71/33
f 38/66/34 33/72/34 39/70/34
f 33/73/35 11/74/35 39/53/35
f 24/75/36 37/52/36 11/51/36
f 24/76/37 31/77/37 37/57/37
f 31/78/38 10/48/38 37/58/38
f 32/79/39 36/49/39 10/48/39
f 32/80/40 29/81/40 36/82/40
f 29/81/41 9/83/41 36/82/41
f 30/32/42 35/84/42 9/83/42
f 30/32/43 27/21/43 35/84/43
f 27/85/44 8/42/44 35/64/44
f 28/86/45 34/87/45 8/88/45
f 28/89/46 25/90/46 34/91/46
f 25/18/47 7/39/47 34/69/47
f 26/30/48 33/92/48 7/93/48
f 26/30/49 23/29/49 33/92/49
f 23/94/50 11/51/50 33/95/50
f 31/78/51 32/79/51 10/48/51
f 31/27/52 22/26/52 32/96/52
f 22/26/53 5/97/53 32/96/53
f 29/98/54 30/99/54 9/100/54
f 29/101/55 21/102/55 30/103/55
f 21/23/56 4/104/56 30/105/56
f 27/85/57 28/106/57 8/42/57
f 27/21/58 19/20/58 28/107/58
f 19/20/59 3/16/59 28/107/59
f 25/108/60 26/109/60 7/110/60
f 25/111/61 15/112/61 26/30/61
f 15/112/62 2/28/62 26/30/62
f 23/94/63 24/75/63 11/51/63
f 23/113/64 16/6/64 24/114/64
f 16/6/65 6/115/65 24/114/65
f 17/12/66 22/116/66 6/117/66
f 17/118/67 20/119/67 22/120/67
f 20/119/68 5/121/68 22/120/68
f 20/122/69 21/102/69 5/123/69
f 20/122/70 18/124/70 21/102/70
f 18/124/71 4/125/71 21/102/71
f 18/126/72 19/127/72 4/128/72
f 18/10/73 13/3/73 19/20/73
f 13/3/74 3/16/74 19/20/74
f 16/6/75 17/129/75 6/115/75
f 16/6/76 14/5/76 17/129/76
f 14/2/77 1/1/77 17/12/77
f 13/130/78 15/131/78 3/132/78
f 13/3/79 14/2/79 15/17/79
f 14/133/80 2/134/80 15/131/80
